/* XPM */
static char *_747521345593[] = {
/* columns rows colors chars-per-pixel */
"64 64 181 2 ",
"   c #0C0C0F",
".  c #0D0D10",
"X  c #111214",
"o  c #161619",
"O  c #18181A",
"+  c #212123",
"@  c #26292B",
"#  c #2B2C2E",
"$  c #373739",
"%  c #3E3E40",
"&  c #3D4849",
"*  c #3E4345",
"=  c #474E4F",
"-  c #475252",
";  c #4B5858",
":  c #56595A",
">  c #5F5F61",
",  c #576263",
"<  c #6A6F6F",
"1  c #6D7A7A",
"2  c #747576",
"3  c #F9C65D",
"4  c #FAC95E",
"5  c #F7C762",
"6  c #F8C760",
"7  c #F7CB65",
"8  c #F9CC61",
"9  c #F3CA6B",
"0  c #FBD266",
"q  c #FCDD66",
"w  c #FCDD6D",
"e  c #F9D469",
"r  c #EECD74",
"t  c #EECE7C",
"y  c #F2CB71",
"u  c #FADF73",
"i  c #FDE06F",
"p  c #FDE170",
"a  c #F7E17B",
"s  c #797C86",
"d  c #7B7F89",
"f  c #777983",
"g  c #7D838C",
"h  c #7E9493",
"j  c #739CDF",
"k  c #749FE3",
"l  c #75A0E3",
"z  c #7AA5E3",
"x  c #7EA9E2",
"c  c #838D95",
"v  c #88939A",
"b  c #959E9E",
"n  c #868687",
"m  c #B09995",
"M  c #94ABAE",
"N  c #93A7AB",
"B  c #9AAFB1",
"V  c #9CB8B9",
"C  c #A6A7A8",
"Z  c #A0BBBD",
"A  c #B6BBBC",
"S  c #B6ABA6",
"D  c #F69D83",
"F  c #EEA78F",
"G  c #F1A38A",
"H  c #EAAC97",
"J  c #E2B6A3",
"K  c #DED59B",
"L  c #EAD186",
"P  c #E9D487",
"I  c #E0CF98",
"U  c #E1D393",
"Y  c #EDE28D",
"T  c #D6D9AC",
"R  c #DEDAA8",
"E  c #DBC4B4",
"W  c #DEC7B9",
"Q  c #D3CABD",
"!  c #DDCABC",
"~  c #D1C3BE",
"^  c #CEDDBB",
"/  c #CBD6B9",
"(  c #D5DDB4",
")  c #E1C4AD",
"_  c #E3C7B5",
"`  c #E3C8B6",
"'  c #E3CBB9",
"]  c #E1C6B8",
"[  c #D4E2BA",
"{  c #E3E3A1",
"}  c #83A5DD",
"|  c #8BAADB",
" . c #9BB4D8",
".. c #BCBFC8",
"X. c #A5B3D1",
"o. c #A9BBD3",
"O. c #82ADE3",
"+. c #82A6E2",
"@. c #86B1E2",
"#. c #89B5E3",
"$. c #8DB8E3",
"%. c #92BDE2",
"&. c #C3BEC4",
"*. c #9CC1DD",
"=. c #A4C3C3",
"-. c #ABCBCB",
";. c #B6C9C7",
":. c #B6D1CF",
">. c #AED1D1",
",. c #AFD8DD",
"<. c #B1D5D3",
"1. c #B2D9D4",
"2. c #B5DDDA",
"3. c #BBDEDD",
"4. c #B7E1DD",
"5. c #BAE3DE",
"6. c #BDE2D7",
"7. c #96C2E3",
"8. c #9AC5E2",
"9. c #9FCAE3",
"0. c #A3CEE2",
"q. c #A5D0E2",
"w. c #AAD5E2",
"e. c #ADD8E2",
"r. c #B2DDE2",
"t. c #B6E1E2",
"y. c #BBE6E2",
"u. c #BEE8E6",
"i. c #BFE9E8",
"p. c #C2C2C3",
"a. c #CECFC5",
"s. c #CBCCCC",
"d. c #D1CBC0",
"f. c #CBDFC4",
"g. c #CCD1C7",
"h. c #D0D2C9",
"j. c #C3DDD6",
"k. c #C1DFD8",
"l. c #D1D3D3",
"z. c #DADBDB",
"x. c #EBD4C3",
"c. c #EEDBCA",
"v. c #ECD8C8",
"b. c #F2DECD",
"n. c #F0D9C5",
"m. c #CBE0C5",
"M. c #C5E1CD",
"N. c #CCE1CB",
"B. c #C3E2D4",
"V. c #CBE5D3",
"C. c #C1E3DB",
"Z. c #C9E6DA",
"A. c #F4E1CF",
"S. c #F4E2D2",
"D. c #F9E8D7",
"F. c #F9E7D9",
"G. c #FCEDDD",
"H. c #DDCFE8",
"J. c #D9CAE5",
"K. c #C7DCE5",
"L. c #DBD3E7",
"P. c #E1CFE8",
"I. c #E2D7EA",
"U. c #C1E6E4",
"Y. c #C3E9E6",
"T. c #C1EAE8",
"R. c #CCECE9",
"E. c #C6E6E8",
"W. c #D3EEEC",
"Q. c #D6E5EA",
"!. c #D9F1EF",
"~. c #DDF3F1",
"^. c #E6E7E7",
"/. c #ECEDED",
"(. c #FBEEE0",
"). c #EAF3F4",
"_. c #E8F6F5",
"`. c #F3FAFA",
"'. c #FEFEFE",
"]. c #F1F1F1",
"[. c #ff77f8",
/* pixels */
"[.[.[.[.[.[.[.[.[.[.[.[.[.[.[.[.[.[.[.[.[.[.[.[.[.[.[.[.[.[.[.[.[.[.[.[.[.[.[.[.[.[.[.[.[.[.[.[.[.[.[.[.[.[.[.[.[.[.[.[.[.[.[.[.",
"[.[.[.[.[.[.[.[.[.[.[.[.[.[.[.[.[.[.[.[.[.[.[.[.[.[.[.[.[.[.[.[.[.[.[.[.[.[.[.[.[.[.[.[.[.[.[.[.[.[.[.[.[.[.[.[.[.[.[.[.[.[.[.[.",
"[.[.[.[.[.[.[.[.[.[.[.[.[.[.[.[.[.[.[.[.[.[.[.[.[.[.[.[.[.[.[.[.[.[.[.[.[.[.[.[.[.[.[.[.[.[.[.[.[.[.[.[.[.[.[.[.[.[.[.[.[.[.[.[.",
"[.[.[.[.[.[.[.[.[.[.[.[.[.[.[.[.[.[.[.) ` ` [.[.[.[.[.[.[.[.[.[.[.[.[.[.[.[.[.[.[.[.[.' ' [.[.[.[.[.[.[.[.[.[.[.[.[.[.[.[.[.[.[.",
"[.[.[.[.[.[.[.[.[.[.[.[.[.[.[.[.[.[.' n.b.S.c.x.[.[.[.[.[.[.[.[.[.[.[.[.[.[.[.[.[.n.b.A.b.c.' [.[.[.[.[.[.[.[.[.[.[.[.[.[.[.[.[.",
"[.[.[.[.[.[.[.[.[.[.[.[.[.[.[.[.[.c.G.(.(.(.(.(.D.[.[.[.[.[.[.[.[.[.[.[.[.[.[.[.D.G.G.(.(.(.F.v.[.[.[.[.[.[.[.[.[.[.[.[.[.[.[.[.",
"[.[.[.[.[.[.[.[.[.[.[.[.[.[.[.[.b.(.(.G.G.(.(.G.G.A.[.[.[.[.[.[.[.[.[.[.[.[.[.G.G.G.(.G.(.G.G.G.[.[.[.[.[.[.[.[.[.[.[.[.[.[.[.[.",
"[.[.[.[.[.[.[.[.[.[.[.[.[.[.[.[.F.(.G.G.G.D.A.A.S.D.[.[.[.[.[.[.[.[.[.[.[.[.[.D.S.S.S.F.G.G.(.G.G.[.[.[.[.[.[.[.[.[.[.[.[.[.[.[.",
"[.[.[.[.[.[.[.[.[.[.[.[.[.[.[.[.D.D.c.x.` ` _ ` ` ! [.[.z l k k l k k k k [.[.d.' _ _ _ ' x.b.F.G.[.[.[.[.[.[.[.[.[.[.[.[.[.[.[.",
"[.[.[.[.[.[.[.[.[.[.[.[.[.[.[.[.c.` _ ] ` ` W &.X.} l j l k k k k k k k k k k +.X.&.] _ ` ` ` ' A.[.[.[.[.[.[.[.[.[.[.[.[.[.[.[.",
"[.[.[.[.[.[.[.[.[.[.[.[.[.[.[.[._ ` _ W ~ X.x l l l k k l j k k k k k k k k l l k k @.&.! ` ` ` E [.[.[.[.[.[.[.[.[.[.[.[.[.[.[.",
"[.[.[.[.[.[.[.[.[.[.[.[.[.[.[.[._ _ ! o.z l k k k k k k k k k k k k k k k k k k k k k k  .a.] ' [.[.[.[.[.[.[.[.[.[.[.[.[.[.[.[.",
"[.[.[.[.[.[.[.[.[.[.[.[.[.[.[.[.[.h.*.l k k k k k k k k k k k k k k k k k k k k k k k k k %.j.! [.[.[.[.[.[.[.[.[.[.[.[.[.[.[.[.",
"[.[.[.[.[.[.[.[.[.[.[.[.[.[.[.[.[.,.z k k k k k k k k k k k k k k k k k k l k k k k k k k O.t.C.[.[.[.[.[.[.[.[.[.[.[.[.[.[.[.[.",
"[.[.[.[.[.[.[.[.[.[.[.[.[.[.[.[.y.0.l k k k k k k k l k k k k k k k k k k k k k k k k k k %.u.y.5.[.[.[.[.[.[.[.[.[.[.[.[.[.[.[.",
"[.[.[.[.[.[.[.[.[.[.[.[.[.[.[.y.y.8.k k k k k k k k k k k k k k k k k k k k k k k k k k @.r.y.y.y.y.[.[.[.[.[.[.[.[.[.[.[.[.[.[.",
"[.[.[.[.[.[.[.[.[.[.[.[.[.4.y.y.y.q.k k k k k k k k k k k k k k k k l l k k k k k k k @.t.y.y.y.y.y.y.4.[.[.[.[.[.[.[.[.[.[.[.[.",
"[.[.[.[.[.[.[.[.y.u.y.y.y.y.y.y.y.t.x k k k k k k k k k k k k k k k k l k k k k k l x r.y.y.y.y.y.y.y.y.y.5.y.5.[.[.[.[.[.[.[.[.",
"[.[.[.[.T.Y.Y.Z.V.N.N.B.y.y.y.y.y.y.8.l k k k k k k k k k k k k k k l l k k l k k k 9.y.y.y.y.y.y.y.y.y.5.M.m.M.B.C.5.y.5.[.[.[.",
"[.U.T.Y.N.R L y 6 3 3 7 ^ y.y.y.y.y.t.#.k k k k k k k k k k k k k k x z k k l l k k e.y.y.y.y.y.y.y.y.y.K 6 3 3 9 t U ^ Z.y.y.[.",
"[.Y.Z.L 5 4 8 0 q 0 0 8 m.y.y.y.y.y.y.r.#.k k k k k k k k k k k k k O.e.#.z l l k k 7.y.y.y.y.y.y.y.y.y.K 8 0 0 0 0 5 4 r f.5.2.",
"[.E.R 3 5 i p p p p i P y.y.y.y.y.y.y.y.t.%.l k k k k k k k k k k k z w.y.w.#.z l k z w.y.y.y.y.y.y.y.y.m.p p p i i i 8 6 U y.[.",
"[.u.N.6 4 w p p p p p { y.y.y.y.y.y.y.y.y.y.w.@.l k k k k k k k k k l #.y.y.y.r.q.7.$.0.y.y.y.y.y.y.y.y.y.a p p p i u 4 3 T u.[.",
"[.[.T.L 3 8 i p p p p [ y.y.y.y.y.y.y.y.y.y.y.t.q.$.z k k k k k k l l l q.y.y.y.y.y.y.y.y.y.y.y.y.y.y.y.y.Y p p p i 0 3 9 C.y.[.",
"[.[.i.Z.9 3 8 w w w e m.y.y.y.y.y.y.y.y.5.5.5.5.5.y.r.0.7.x x z l k l l z w.y.y.y.y.5.5.y.y.y.y.y.y.y.y.2.I q q w 0 3 6 ^ u.[.[.",
"[.[.[.i.V.t 6 3 3 7 L 6.y.y.y.y.y.y.<.c ; & ; v 1.y.y.y.y.5.r.e.q.9.7.7.7.q.y.y.=.1 = & , M 4.5.y.y.y.y.3./ r 6 3 3 9 ( u.y.[.[.",
"[.[.[.[.T.U.[ ( ( m.[.5.y.y.y.y.5.:.* .       . - 4.5.y.y.y.y.y.y.y.y.y.y.y.y.V @       . o 1 5.y.y.y.y.y.2.[.( T ( B.y.y.[.[.[.",
"[.[.[.[.[.[.[.[.[.[.[.y.y.y.y.y.!.< .           . h y.y.u.y.y.y.y.y.y.y.y.y.5.=             X A R.y.y.y.y.t.[.[.[.[.[.[.[.[.[.[.",
"[.[.[.[.[.[.[.[.[.[.[.u.y.y.y.W./.#               , 5.u.5.u.y.y.y.y.y.y.y.y.-.@               < `.Y.y.y.y.[.[.[.[.[.[.[.[.[.[.[.",
"[.[.[.[.[.[.[.[.[.[.[.y.y.y.y.`.^.+               , u.y.y.5.y.y.y.y.y.y.y.y.:.@               < '.!.y.y.y.[.[.[.[.[.[.[.[.[.[.[.",
"[.[.[.[.[.[.[.[.[.[.[.[.y.t.Y.'.].$             . b 5.y.y.y.y.y.y.y.y.y.y.y.Y.:             . n '.`.y.y.y.[.[.[.[.[.[.[.[.[.[.[.",
"[.[.[.[.[.[.[.[.[.[.[.[.y.y.W.'.'.C o           = Q.5.y.y.y.y.y.y.y.y.y.y.5.U.;.+           # z.'.`.Y.y.[.[.[.[.[.[.[.[.[.[.[.[.",
"[.[.[.[.[.[.[.[.[.[.[.[.[.K.W.'.'.`.C % o   O ; l.R.y.y.y.y.y.y.y.y.y.y.y.y.y.!.C % X   + : l.'.'.`.E.K.[.[.[.[.[.[.[.[.[.[.[.[.",
"[.[.[.[.[.[.[.[.[.[.[.[.[.J.L.`.'.'.'.].s.~ h._.W.y.y.y.y.y.y.y.y.y.y.y.y.y.5.y.~.^.s.;.z.`.'.'.'.).H.[.[.[.[.[.[.[.[.[.[.[.[.[.",
"[.[.[.[.[.[.[.[.[.[.[.[.[.[.P.^.`.'.'.'.'.`._.Y.y.y.y.y.y.y.y.y.y.y.y.y.y.y.y.y.y.W._.'.'.'.'.'._.I.L.[.[.[.[.[.[.[.[.[.[.[.[.[.",
"[.[.[.[.[.[.[.[.[.[.[.[.[.[.P.K.E.W.~.~.W.T.y.y.y.y.y.y.y.y.y.y.y.y.y.y.y.y.y.y.y.y.y.R.!.~.!.R.Y.P.[.[.[.[.[.[.[.[.[.[.[.[.[.[.",
"[.[.[.[.[.[.[.[.[.[.[.[.[.[.[.U.y.y.y.y.y.y.y.y.y.y.y.y.y.y.y.y.y.y.y.y.y.y.y.y.y.y.y.y.y.y.5.y.y.[.[.[.[.[.[.[.[.[.[.[.[.[.[.[.",
"[.[.[.[.[.[.[.[.[.[.[.[.[.[.[.[.5.y.y.y.y.y.y.y.y.y.y.y.y.y.y.y.y.y.y.y.y.y.y.y.y.y.y.y.y.y.y.y.[.[.[.[.[.[.[.[.[.[.[.[.[.[.[.[.",
"[.[.[.[.[.[.[.[.[.[.[.[.[.[.[.[.[.y.y.y.y.y.y.y.y.y.y.y.y.y.y.5.y.y.y.y.y.y.y.y.y.y.y.y.y.y.5.[.[.[.[.[.[.[.[.[.[.[.[.[.[.[.[.[.",
"[.[.[.[.[.[.[.[.[.[.[.[.[.[.[.[.[.[.4.y.y.y.y.y.y.y.y.y.y.j.a.! Q h.C.y.y.y.y.y.y.y.y.y.y.y.[.[.[.[.[.[.[.[.[.[.[.[.[.[.[.[.[.[.",
"[.[.[.[.[.[.[.[.[.[.[.[.[.[.[.[.[.[.[.y.y.y.y.y.y.y.y.y.k.H D D G G J C.y.y.y.y.y.y.y.y.y.5.[.[.[.[.[.[.[.[.[.[.[.[.[.[.[.[.[.[.",
"[.[.[.[.[.[.[.[.[.[.[.[.[.[.[.[.[.[.[.5.y.y.y.y.y.y.y.y.5.E G G D G Q 5.y.y.y.y.y.y.y.y.y.y.[.[.[.[.[.[.[.[.[.[.[.[.[.[.[.[.[.[.",
"[.[.[.[.[.[.[.[.[.[.[.[.[.[.[.[.[.[.[.i.u.y.y.y.y.y.y.y.y.y.j.m S B.y.y.y.y.y.y.y.y.y.y.y.[.[.[.[.[.[.[.[.[.[.[.[.[.[.[.[.[.[.[.",
"[.[.[.[.[.[.[.[.[.[.[.[.[.[.[.[.[.[.[.y.y.y.y.y.y.y.y.y.y.y.5.c M y.y.y.y.y.y.y.y.y.y.y.y.[.[.[.[.[.[.[.[.[.[.[.[.[.[.[.[.[.[.[.",
"[.[.[.[.[.[.[.[.[.[.[.[.[.[.[.[.[.[.[.[.y.y.y.y.y.y.y.y.y.y.u.c M i.y.y.y.y.y.y.y.y.y.y.5.[.[.[.[.[.[.[.[.[.[.[.[.[.[.[.[.[.[.[.",
"[.[.[.[.[.[.[.[.[.[.[.[.[.[.[.[.[.[.[.[.y.y.y.y.y.y.y.y.y.y.y.c N y.y.y.y.y.y.y.y.y.y.y.[.[.[.[.[.[.[.[.[.[.[.[.[.[.[.[.[.[.[.[.",
"[.[.[.[.[.[.[.[.[.[.[.[.[.[.[.[.[.[.[.[.[.y.y.y.y.y.y.y.y.y.1.d c 5.y.y.y.y.y.y.y.y.y.5.[.[.[.[.[.[.[.[.[.[.[.[.[.[.[.[.[.[.[.[.",
"[.[.[.[.[.[.[.[.[.[.[.[.[.[.[.[.[.[.[.[.[.y.y.y.y.y.>.<.y.<.v g g N 2.5.>.2.y.y.y.y.y.5.[.[.[.[.[.[.[.[.[.[.[.[.[.[.[.[.[.[.[.[.",
"[.[.[.[.[.[.[.[.[.[.[.[.[.[.[.[.[.[.[.[.[.y.y.y.y.y.B f d f c >.=.g 1 g s =.y.y.y.y.u.[.[.[.[.[.[.[.[.[.[.[.[.[.[.[.[.[.[.[.[.[.",
"[.[.[.[.[.[.[.[.[.[.[.[.[.[.[.[.[.[.[.[.[.[.5.y.y.y.t.-.V -.2.u.5.1.=.X.>.y.y.y.y.y.y.[.[.[.[.[.[.[.[.[.[.[.[.[.[.[.[.[.[.[.[.[.",
"[.[.[.[.[.[.[.[.[.[.[.[.[.[.[.[.[.[.[.[.[.[.[.i.y.y.y.y.y.y.y.y.y.y.y.y.y.y.y.y.y.y.[.[.[.[.[.[.[.[.[.[.[.[.[.[.[.[.[.[.[.[.[.[.",
"[.[.[.[.[.[.[.[.[.[.[.[.[.[.[.[.[.[.[.[.[.[.[.[.4.y.y.y.y.y.y.y.y.y.y.y.y.y.y.y.y.[.[.[.[.[.[.[.[.[.[.[.[.[.[.[.[.[.[.[.[.[.[.[.",
"[.[.[.[.[.[.[.[.[.[.[.[.[.[.[.[.[.[.[.[.[.[.[.[.[.[.y.y.y.y.y.y.y.y.i.i.y.u.y.[.[.[.[.[.[.[.[.[.[.[.[.[.[.[.[.[.[.[.[.[.[.[.[.[.",
"[.[.[.[.[.[.[.[.[.[.[.[.[.[.[.[.[.[.[.[.[.[.[.[.[.[.[.[.[.[.[.[.[.[.[.[.[.[.[.[.[.[.[.[.[.[.[.[.[.[.[.[.[.[.[.[.[.[.[.[.[.[.[.[.",
"[.[.[.[.[.[.[.[.[.[.[.[.[.[.[.[.[.[.[.[.[.[.[.[.[.[.[.[.[.[.[.[.[.[.[.[.[.[.[.[.[.[.[.[.[.[.[.[.[.[.[.[.[.[.[.[.[.[.[.[.[.[.[.[.",
"[.[.[.[.[.[.[.[.[.[.[.[.[.[.[.[.[.[.[.[.[.[.[.[.[.[.[.[.[.[.[.[.[.[.[.[.[.[.[.[.[.[.[.[.[.[.[.[.[.[.[.[.[.[.[.[.[.[.[.[.[.[.[.[.",
"[.[.[.[.[.[.[.[.[.[.[.[.[.[.[.[.[.[.[.[.[.[.[.[.[.[.[.[.[.[.[.[.[.[.[.[.[.[.[.[.[.[.[.[.[.[.[.[.[.[.[.[.[.[.[.[.[.[.[.[.[.[.[.[.",
"[.[.[.[.[.[.[.[.[.[.[.[.[.[.[.[.[.[.[.[.[.[.[.[.[.[.[.[.[.[.[.[.[.[.[.[.[.[.[.[.[.[.[.[.[.[.[.[.[.[.[.[.[.[.[.[.[.[.[.[.[.[.[.[.",
"[.[.[.[.[.[.[.[.[.[.[.[.[.[.[.[.[.[.[.[.[.[.[.[.[.[.[.[.[.[.[.[.[.[.[.[.[.[.[.[.[.[.[.[.[.[.[.[.[.[.[.[.[.[.[.[.[.[.[.[.[.[.[.[.",
"[.[.[.[.[.[.[.[.[.[.[.[.[.[.[.[.[.[.[.[.[.[.[.[.[.[.[.[.[.[.[.[.[.[.[.[.[.[.[.[.[.[.[.[.[.[.[.[.[.[.[.[.[.[.[.[.[.[.[.[.[.[.[.[.",
"[.[.[.[.[.[.[.[.[.[.[.[.[.[.[.[.[.[.[.[.[.[.[.[.[.[.[.[.[.[.[.[.[.[.[.[.[.[.[.[.[.[.[.[.[.[.[.[.[.[.[.[.[.[.[.[.[.[.[.[.[.[.[.[.",
"[.[.[.[.[.[.[.[.[.[.[.[.[.[.[.[.[.[.[.[.[.[.[.[.[.[.[.[.[.[.[.[.[.[.[.[.[.[.[.[.[.[.[.[.[.[.[.[.[.[.[.[.[.[.[.[.[.[.[.[.[.[.[.[.",
"[.[.[.[.[.[.[.[.[.[.[.[.[.[.[.[.[.[.[.[.[.[.[.[.[.[.[.[.[.[.[.[.[.[.[.[.[.[.[.[.[.[.[.[.[.[.[.[.[.[.[.[.[.[.[.[.[.[.[.[.[.[.[.[.",
"[.[.[.[.[.[.[.[.[.[.[.[.[.[.[.[.[.[.[.[.[.[.[.[.[.[.[.[.[.[.[.[.[.[.[.[.[.[.[.[.[.[.[.[.[.[.[.[.[.[.[.[.[.[.[.[.[.[.[.[.[.[.[.[."
};
