/* XPM */
static char *_747521149206[] = {
/* columns rows colors chars-per-pixel */
"64 64 216 2 ",
"   c #1B2C3D",
".  c #5D311D",
"X  c #7E3A14",
"o  c #7A360F",
"O  c #683523",
"+  c #7A4E37",
"@  c #1E3548",
"#  c #1B2E40",
"$  c #243444",
"%  c #2A3A4A",
"&  c #364553",
"*  c #344B63",
"=  c #394D62",
"-  c #3D536B",
";  c #3A5067",
":  c #3A5973",
">  c #234B66",
",  c #585357",
"<  c #74534C",
"1  c #604842",
"2  c #42576C",
"3  c #475C73",
"4  c #535F6A",
"5  c #56616D",
"6  c #4D657D",
"7  c #586879",
"8  c #67727D",
"9  c #616C77",
"0  c #8F3E10",
"q  c #9E4512",
"w  c #A14B1B",
"e  c #A04817",
"r  c #8D5031",
"t  c #A95930",
"y  c #936939",
"u  c #B0663E",
"i  c #AF653D",
"p  c #995547",
"a  c #865B53",
"s  c #995853",
"d  c #996444",
"f  c #966A48",
"g  c #A86E4C",
"h  c #B26B45",
"j  c #B47451",
"k  c #B87855",
"l  c #B17749",
"z  c #9C6C64",
"x  c #B86C6B",
"c  c #A97868",
"v  c #B6746C",
"b  c #C27E57",
"n  c #C47256",
"m  c #D87F5B",
"M  c #C16F6F",
"N  c #B98E3B",
"B  c #D7A63D",
"V  c #CEA732",
"C  c #E4B339",
"Z  c #F3DD3A",
"A  c #EFC834",
"S  c #FCF83E",
"D  c #F9EE3F",
"F  c #B8834F",
"G  c #BB8657",
"H  c #BA856A",
"J  c #AC887B",
"K  c #BA8A76",
"L  c #C5964C",
"P  c #C48457",
"I  c #CA9455",
"U  c #D19B52",
"Y  c #D7AA4A",
"T  c #DBB34D",
"R  c #C4A05B",
"E  c #E5BC4A",
"W  c #C48969",
"Q  c #DA8466",
"!  c #CB967A",
"~  c #CD986D",
"^  c #EB9C74",
"/  c #DDC048",
"(  c #EDDC44",
")  c #E8D344",
"_  c #EAC251",
"`  c #E9CD46",
"'  c #F9F441",
"]  c #F8F342",
"[  c #F5E643",
"{  c #EFD465",
"}  c #336C8F",
"|  c #357BA3",
" . c #526983",
".. c #576D84",
"X. c #5C7188",
"o. c #5D7490",
"O. c #66778A",
"+. c #747F8D",
"@. c #707983",
"#. c #657D9A",
"$. c #368BB9",
"%. c #79838D",
"&. c #758393",
"*. c #7B8B9A",
"=. c #5C85A3",
"-. c #5A9DBC",
";. c #728DAD",
":. c #7590AC",
">. c #3B9ED1",
",. c #3A99CB",
"<. c #3EA3D8",
"1. c #78A7C8",
"2. c #6CAFD3",
"3. c #42B4EE",
"4. c #70BDE6",
"5. c #5DB0D0",
"6. c #69C2E4",
"7. c #6DD9F6",
"8. c #76F6FE",
"9. c #73EEFC",
"0. c #868E97",
"q. c #8A929B",
"w. c #9D9E9E",
"e. c #938C8C",
"r. c #AA9896",
"t. c #B69C8D",
"y. c #BBA093",
"u. c #8998A7",
"i. c #969EA8",
"p. c #849BB8",
"a. c #99A2AB",
"s. c #9AA5B1",
"d. c #A1A7AE",
"f. c #AAAAAB",
"g. c #A6ACB5",
"h. c #A9B2BB",
"j. c #B6B9BE",
"k. c #B3B6BA",
"l. c #CA9C87",
"z. c #EB948A",
"x. c #D4AA93",
"c. c #D3A790",
"v. c #F6A88D",
"b. c #F9A994",
"n. c #F1B499",
"m. c #CBB5AD",
"M. c #DEBDAB",
"N. c #CABCB5",
"B. c #C8AEA7",
"V. c #FEACAC",
"C. c #FBA6A3",
"Z. c #FBBCBC",
"A. c #EEB3B4",
"S. c #CFC4BE",
"D. c #F1C6B1",
"F. c #809EC2",
"G. c #96AFC3",
"H. c #AAB7C7",
"J. c #BCBFC3",
"K. c #B3BBC4",
"L. c #C4BEC4",
"P. c #BEC2C6",
"I. c #B9C8DA",
"U. c #C5C6C9",
"Y. c #CECECF",
"T. c #C8C5C5",
"R. c #D4C8C5",
"E. c #CECFD0",
"W. c #C4CBD4",
"Q. c #CDD3D9",
"!. c #CDD2D6",
"~. c #D3D3D4",
"^. c #D3D6DA",
"/. c #DBDBDC",
"(. c #D7D8DB",
"). c #D6CCD5",
"_. c #E8CFC4",
"`. c #FBCCCC",
"'. c #E9D5CA",
"]. c #F8DDCE",
"[. c #E7DDDA",
"{. c #FEDEDE",
"}. c #F9D6D7",
"|. c #F1E3DC",
" X c #EFE0D9",
".X c #D9DEE3",
"XX c #D7DDE5",
"oX c #C6DAF5",
"OX c #C0CEE0",
"+X c #E2DDE2",
"@X c #F9D9E9",
"#X c #DEE1E5",
"$X c #DFE3E8",
"%X c #DAE7F7",
"&X c #E3E4E4",
"*X c #E7E8E7",
"=X c #E2E6EB",
"-X c #EAE6EA",
";X c #E6E9EC",
":X c #EAEBEA",
">X c #EBE7E4",
",X c #FDE5E3",
"<X c #FEECEC",
"1X c #F4EBE6",
"2X c #EFF0EF",
"3X c #EBEEF2",
"4X c #E7EBF0",
"5X c #F3E9F2",
"6X c #EEF4F7",
"7X c #F3F3F3",
"8X c #FDF5F5",
"9X c #F4F6F8",
"0X c #FEFEFE",
"qX c #FAF8F7",
"wX c #F8F1ED",
"eX c #ff77f8",
/* pixels */
"eXeXeXeXeXeXeXeXeXeXeXeXeXeXeXeXeXeXeXeXeXeXeXeXeXeXeXeXeXeXeXeXeXeXeXeXeXeXeXeXeXeXeXeXeXeXeXeXeXeXeXeXeXeXeXeXeXeXeXeXeXeXeXeX",
"eXeXeXeXeXeXeXeXeXeXeXeXeXeXeXeXeXeXeXeXeXeXeXeXeXeXeXeXeXeXeXeXeXeXeXeXeXeXeXeXeXeXeXeXeXeXeXeXeXeXeXeXeXeXeXeXeXeXeXeXeXeXeXeX",
"eXeXeXeXeXeXeXeXeXeXeXeXeXeXeXeXeXeXeXeXeXeXeXeXeXeXeXeXeXeXeXeXeXeXeXeXeXeXeXeXeXeXeXeXeXeXeXeXeXeXeXeXeXeXeXeXeXeXeXeXeXeXeXeX",
"eXeXeXeXeXeXeXeXeXeXeXeXeXeXeXeXeXeXeXeXeXeXeXeXeXeXeXeXeXeXeXeXeXeXeXeXeXeXeXeXeXeXeXeXeXeXeXeXeXeXeXeXeXeXeXeXeXeXeXeXeXeXeXeX",
"eXeXeXeXeXeXeXeXeXeXeXeXeXeXeXeXeXeXeXeXeXeXeXeXeXeXeXeXeXeXeXeXeXeXeXeXeXeXeXeXeXeXeXeXeXeXeXeXeXeXeXeXeXeXeXeXeXeXeXeXeXeXeXeX",
"eXeXeXeXeXeXeXeXeXeXeXeXeXeXeXeXeXeXeXeXeXeXeXeXeXeXeXeXeXeXeXeXeXeXeXeXeXeXeXeXeXeXeXeXeXeXeXeXeXeXeXeXeXeXeXeXeXeXeXeXeXeXeXeX",
"eXeXeXeXeXeXeXeXeXeXeXeXeXeXeXeXeXeXeXeXeXeXeXeXeXeXeXeXeXeXeXeXeXeXeXeXeXeXeXeXeXeXeXeXeXeXeXeXeXeXeXeXeXeXeXeXeXeXeXeXeXeXeXeX",
"eXeXeXeXeXeXeXeXeXeXeXeXeXeXeXeXeXeXeXY Y T eXeXeXeXeXeXeXeXeXeXeXeXeXeXeXeXeXeXeXY E B B eXeXeXeXeXeXeXeXeXeXeXeXeXeXeXeXeXeXeX",
"eXeXeXeXeXeXeXeXeXeXeXeXeXeXeXeXeXeXY b n g d l eXeXeXeXeXeXeXeXeXeXeXeXeXeXeXeXG j j j l N eXeXeXeXeXeXeXeXeXeXeXeXeXeXeXeXeXeX",
"eXeXeXeXeXeXeXeXeXeXeXeXeXeXeXeXeXI b b b b g d F eXeXeXeXeXeXeXeXeXeXeXeXeXeXP k j j j k y y eXeXeXeXeXeXeXeXeXeXeXeXeXeXeXeXeX",
"eXeXeXeXeXeXeXeXeXeXeXeXeXeXeXeXeXP b I T / ( A C _ eXeXeXeXeXeXeXeXeXeXeXeX{ ( ( ) / Y G f + eXeXeXeXeXeXeXeXeXeXeXeXeXeXeXeXeX",
"eXeXeXeXeXeXeXeXeXeXeXeXeXeXeXeXeXT [ S S ' ] Z A A eXeXeXeXeXeXeXeXeXeXeX|.D D ] ] ' ' ' Z V G eXeXeXeXeXeXeXeXeXeXeXeXeXeXeXeX",
"eXeXeXeXeXeXeXeXeXeXeXeXeXeXeXeXeXS S ( / T U I L V ~ ! W k h i u h k k H l.V L G U Y / ( Z A T eXeXeXeXeXeXeXeXeXeXeXeXeXeXeXeX",
"eXeXeXeXeXeXeXeXeXeXeXeXeXeXeXeXeX( T I P ~ x.D.W t e w t e e q w u H h q o o r r H W j F N C _ eXeXeXeXeXeXeXeXeXeXeXeXeXeXeXeX",
"eXeXeXeXeXeXeXeXeXeXeXeXeXeXeXeXeXU G W D.[.wX Xh e W c.h e j c._.'.! t q 0 o o y N.T.m.H r y R eXeXeXeXeXeXeXeXeXeXeXeXeXeXeXeX",
"eXeXeXeXeXeXeXeXeXeXeXeXeXeXeXeXeX~ x.wX0X0X<X! l.|.[.c.M.1X0X0X0X1X_._.~.|.>X*X*X*X/.Y.!.r.f eXeXeXeXeXeXeXeXeXeXeXeXeXeXeXeXeX",
"eXeXeXeXeXeXeXeXeXeXeXeXeXeXeXeX}.[.8X0X0X0X1X1X0X0X0X0X0X0X0X0X0X0X0X0X0X0X0X7X:X:X*X/.E.E.N.B.eXeXeXeXeXeXeXeXeXeXeXeXeXeXeXeX",
"eXeXeXeXeXeXeXeXeXeXeXeXeXeXeXeX0X0X0X0X0X0X0X0X0X0X0X0X0X0X0X0X0X0X0X0X0X0X0XqX2X:X*X>X~.Y.E.(.eXeXeXeXeXeXeXeXeXeXeXeXeXeXeXeX",
"eXeXeXeXeXeXeXeXeXeXeXeXeXeXeX0X0X0X0X0X0X0X0X0X0X0X0X0X0X0X0X0X0X0X0X0X0X0X0X0X2X*X:X:X*XE.Y.E.(.eXeXeXeXeXeXeXeXeXeXeXeXeXeXeX",
"eXeXeXeXeXeXeXeXeXeXeXeXeXeX8X0X0X0X0X0X0X0X0X0X0X0X0X0X0X0X0X0X0X0X0X0X0X0X0X0XqX2X*X:X:X(.Y.Y.Y.+X).eXeXeXeXeXeXeXeXeXeXeXeXeX",
"eXeXeXeXeXeXeXeXeXeXeX4X(.Y.7X0X0X0X0X0X0X0X0X0X0X0X0X0X0X0X0X0X0X0X0X0X0X0X0X0X0X2X:X:X*X*XY.Y.Y.Y.f.d.f.eXeXeXeXeXeXeXeXeXeXeX",
"eXeXeXeXeXeXeX0XqX8XqX9X:X3XqX0X0X0X0X0X0X0X0X0X0X0X0X0X0X0X0X0X0X0X0X0X0X0X0X0X0X7X:X:X*X*X~.Y.Y.Y.j.w.w.f.T..X&X-X5X@XeXeXeXeX",
"eXeXeXeX0XqXqX3X%XoXoXoX%X7XqX0X0X0X0X9X9XqX0X0X0X0X0X0X0X0X0X0X0X0X0X0X0X0X0X0X0XwX&X&X&X*X/.Y.Y.Y.T.i.%.+.&.q.J./.&X&XeXeXeXeX",
"eXeXeX0X].c.W H W r.r.g.W.H.K.4X0X:XW.u.*.*.h.=X0X0X0X0X0X0X0X0X0X0X0X0X0X0X0X0X&Xd.8 7 %.h.E.Y.j.q.q.e., , 1 < < a J S.&XeXeXeX",
"eXeX0XqX~ Q Q Q Q n t w l.g.: &.a.*.3 * * * * &.#X0X0X0X0X0X0X0X0X0X0X0X0X0X0X#X8         % 7 @.5 % @.r.. O r p p p p c /.eXeXeX",
"eXeXeXqX^ b.C.V.V.C.z.z.'.3XK.&.3 *.h.u.3 * * ; s.9X0X0X0X0X0X0X0X0X0X0X0X0XqXa.O.q.7 $       $ 4 0.N.L.a s x M M M c c /.eXeXeX",
"eXeXeX0Xn.v.V.V.V.V.C.C.T.s..XK.O.XX0X4Xu.: : : O.=X0X0X0X0X0X0X0X0X0X0X0X0X#X0.^.qX#X8 @ @ @ # 0.g.0.i.z z M M M v v t.eXeXeXeX",
"eXeXeXeX].v.b.C.V.V.C.C.Q.7 * - O.$X0X6XG.5.7.6.=.Q.0X0X0X0X0X0X0X0X0X0X0X0XW.&.&X0X3X0.| ,.} @ $ # % d.z x M x M v J S.eXeXeXeX",
"eXeXeXeXeX].D.b.b.b.z.n.9XW.a.6 3 H.XXH.1.9.8.8.2.XX0X0X0X0X0X0X0X0X0X0X0X0XQ.X.g.(.P.=.<.3.,.> % @.i.T.J c v v H y.S.&XeXeXeXeX",
"eXeXeXeXeXeXeX].D.eXeX@X0X0XqX*.* 2  .6 -.8.8.9.2.#X0X0X0X0X0X0X0X0X0X0X0X0XQ.6 X.#...} <.3.>.> 5 R.Y.).R.m.B.N.Y.[.:XeXeXeXeXeX",
"eXeXeXeXeXeXeXeXeXeXeXeX0X0X0Xa.* * *  .=.4.7.4.1.XX0X0X0X0X0X0X0X0X0X0X0X0XQ... . . .- } $.} # 8 E.Y.Y.eXeXeXeXeXeXeXeXeXeXeXeX",
"eXeXeXeXeXeXeXeXeXeXeXeXqX7XqXh.* * ;  .;.1.F.F.G.4X0X0X0X0X0X0X0X0X0X0X0X0X;Xu. . .6 - * @     0.Y.Y.E.eXeXeXeXeXeXeXeXeXeXeXeX",
"eXeXeXeXeXeXeXeXeXeXeXeX:X:X2X!...- 3 X.;.:.p.H.;X0X0X0X0X0X0X0X0X0X0X0X0X0X0X#Xi.X.6 - = % $ & g.Y.Y.(.eXeXeXeXeXeXeXeXeXeXeXeX",
"eXeXeXeXeXeXeXeXeXeXeXeXeX*X*X*X/.XX#X$X4X;X;X9X0X0X0X<X{.8X0X0X0X0X8X`.,X0X0X0X6X(.!.!.Y.P.k.j.Y.Y.Y.(.eXeXeXeXeXeXeXeXeXeXeXeX",
"eXeXeXeXeXeXeXeXeXeXeXeXeX/.+X*X:X9X0X0X0X0X0X0X0X0X0X,X`.8X0X0X0X0X<XZ.}.0X0X0X0X:X:X:X*XE.Y.Y.E.E.~.eXeXeXeXeXeXeXeXeXeXeXeXeX",
"eXeXeXeXeXeXeXeXeXeXeXeXeX&X/.#X*X2XqX0X0X0X0X0X0X0X0X8X8X0X0X0X0X0X0X<X8X0X0X0XqX:X:X:X/.Y.Y.Y.E.E.~.eXeXeXeXeXeXeXeXeXeXeXeXeX",
"eXeXeXeXeXeXeXeXeXeXeXeXeXeX/./.&X*X7X0X0X0X0X<X{.8X0X0X0X0X0X<X{.0X0X0X0X0X<XZ.`.*X:X&X~.E.Y.Y.Y.E.eXeXeXeXeXeXeXeXeXeXeXeXeXeX",
"eXeXeXeXeXeXeXeXeXeXeXeXeXeXeXY.~.*X:X0X0X0X0X{.`.8X0X0X0X0X0X{.`.8X0X0X0X0X,Xz.A.>X*X(.Y.Y.Y.E.Y.eXeXeXeXeXeXeXeXeXeXeXeXeXeXeX",
"eXeXeXeXeXeXeXeXeXeXeXeXeXeXeXY.Y./.*X7X0X0X0X8X<X0X0X0X0X0X0X0X0X0X0X0X0X0XqX}.[.:X&X~.Y.Y.E.E.~.eXeXeXeXeXeXeXeXeXeXeXeXeXeXeX",
"eXeXeXeXeXeXeXeXeXeXeXeXeXeXeXeXY.Y.&X2X0X0X0X0X0X0X0X0X0X0X0X0X0X0X0X0X0X0XqX7X:X:X/.Y.Y.Y.E.~.eXeXeXeXeXeXeXeXeXeXeXeXeXeXeXeX",
"eXeXeXeXeXeXeXeXeXeXeXeXeXeXeXeXeXE./.:XqX0X0X0X0X0X0X0X0X0X0X0X0X0X0X0X0X0XqX:X:X*X~.Y.E.E.~.eXeXeXeXeXeXeXeXeXeXeXeXeXeXeXeXeX",
"eXeXeXeXeXeXeXeXeXeXeXeXeXeXeXeXeXeX&X:X7X0X0X0X0X0X0X0X0X0X0X0X0X0X0X0X0X0X7X:X:X&XY.Y.E.[.eXeXeXeXeXeXeXeXeXeXeXeXeXeXeXeXeXeX",
"eXeXeXeXeXeXeXeXeXeXeXeXeXeXeXeXeXeX5X*X:XqX0X0X0X0X0X0X0X0X0X0X0X0X0X0X0X0X:X:X*X(.Y.Y.E.eXeXeXeXeXeXeXeXeXeXeXeXeXeXeXeXeXeXeX",
"eXeXeXeXeXeXeXeXeXeXeXeXeXeXeXeXeXeXeX:X:X9X0X0X0X0X0X0X0X0X0X0X0X0X0X0X0X0X:X:X*X~.Y.Y.~.eXeXeXeXeXeXeXeXeXeXeXeXeXeXeXeXeXeXeX",
"eXeXeXeXeXeXeXeXeXeXeXeXeXeXeXeXeXeXeX-X:X7X0X0X0X0X0X0X0X0X0X0X0X0X0X0X0X9X:X:X&XY.Y.Y./.eXeXeXeXeXeXeXeXeXeXeXeXeXeXeXeXeXeXeX",
"eXeXeXeXeXeXeXeXeXeXeXeXeXeXeXeXeXeXeX-X*X:X0X0X0X0X0X0X0X0X0X0X0X0X0X0X0X7X:X:X/.Y.E.E.&XeXeXeXeXeXeXeXeXeXeXeXeXeXeXeXeXeXeXeX",
"eXeXeXeXeXeXeXeXeXeXeXeXeXeXeXeXeXeXeXeX&X:X7X0X0X0X0X0X0X0X0X0X0X0X0X0XqX:X:X:X~.Y.Y.E.eXeXeXeXeXeXeXeXeXeXeXeXeXeXeXeXeXeXeXeX",
"eXeXeXeXeXeXeXeXeXeXeXeXeXeXeXeXeXeXeXeX&X*X2XqX0X0X0X0X0X0XqX6X9X0X0X0X9X:X:X&X~.Y.Y.(.eXeXeXeXeXeXeXeXeXeXeXeXeXeXeXeXeXeXeXeX",
"eXeXeXeXeXeXeXeXeXeXeXeXeXeXeXeXeXeXeXeX/.&X:X7X0X0X0X0X0X0XqX6X6X0X0X0X2X:X:X/.Y.Y.~.~.eXeXeXeXeXeXeXeXeXeXeXeXeXeXeXeXeXeXeXeX",
"eXeXeXeXeXeXeXeXeXeXeXeXeXeXeXeXeXeXeXeXeX/.*X:X7XqX0X0X0X0X6XI.OX7X0X2X:X:X*X(.Y.Y.~.eXeXeXeXeXeXeXeXeXeXeXeXeXeXeXeXeXeXeXeXeX",
"eXeXeXeXeXeXeXeXeXeXeXeXeXeXeXeXeXeXeXeXeXeX/.:X:X2XqXqX0X0X3X:.p.$X2X:X:X:X/.E.Y.Y.eXeXeXeXeXeXeXeXeXeXeXeXeXeXeXeXeXeXeXeXeXeX",
"eXeXeXeXeXeXeXeXeXeXeXeXeXeXeXeXeXeXeXeXeXeX~./.*X:X:X3X2X2XXX;.;.XX:X*X:X#XE.Y.Y.~.eXeXeXeXeXeXeXeXeXeXeXeXeXeXeXeXeXeXeXeXeXeX",
"eXeXeXeXeXeXeXeXeXeXeXeXeXeXeXeXeXeXeXeXeXeXeXU.~.&X:X:X*X:X^.#.#.W.:X*X/.~.Y.Y.Y.eXeXeXeXeXeXeXeXeXeXeXeXeXeXeXeXeXeXeXeXeXeXeX",
"eXeXeXeXeXeXeXeXeXeXeXeXeXeXeXeXeXeXeXeXeXeXeXeXk.P.U.~.(.~.P.O.X.K.(.E.E.U.J.k.eXeXeXeXeXeXeXeXeXeXeXeXeXeXeXeXeXeXeXeXeXeXeXeX",
"eXeXeXeXeXeXeXeXeXeXeXeXeXeXeXeXeXeXeXeXeXeXeXeXeXd.k.j.k.h.d.&.+.d.j.J.U.k.i.eXeXeXeXeXeXeXeXeXeXeXeXeXeXeXeXeXeXeXeXeXeXeXeXeX",
"eXeXeXeXeXeXeXeXeXeXeXeXeXeXeXeXeXeXeXeXeXeXeXeXeXeXeXeXeXeXeXeXeXeXeXeXeXeXeXeXeXeXeXeXeXeXeXeXeXeXeXeXeXeXeXeXeXeXeXeXeXeXeXeX",
"eXeXeXeXeXeXeXeXeXeXeXeXeXeXeXeXeXeXeXeXeXeXeXeXeXeXeXeXeXeXeXeXeXeXeXeXeXeXeXeXeXeXeXeXeXeXeXeXeXeXeXeXeXeXeXeXeXeXeXeXeXeXeXeX",
"eXeXeXeXeXeXeXeXeXeXeXeXeXeXeXeXeXeXeXeXeXeXeXeXeXeXeXeXeXeXeXeXeXeXeXeXeXeXeXeXeXeXeXeXeXeXeXeXeXeXeXeXeXeXeXeXeXeXeXeXeXeXeXeX",
"eXeXeXeXeXeXeXeXeXeXeXeXeXeXeXeXeXeXeXeXeXeXeXeXeXeXeXeXeXeXeXeXeXeXeXeXeXeXeXeXeXeXeXeXeXeXeXeXeXeXeXeXeXeXeXeXeXeXeXeXeXeXeXeX",
"eXeXeXeXeXeXeXeXeXeXeXeXeXeXeXeXeXeXeXeXeXeXeXeXeXeXeXeXeXeXeXeXeXeXeXeXeXeXeXeXeXeXeXeXeXeXeXeXeXeXeXeXeXeXeXeXeXeXeXeXeXeXeXeX",
"eXeXeXeXeXeXeXeXeXeXeXeXeXeXeXeXeXeXeXeXeXeXeXeXeXeXeXeXeXeXeXeXeXeXeXeXeXeXeXeXeXeXeXeXeXeXeXeXeXeXeXeXeXeXeXeXeXeXeXeXeXeXeXeX",
"eXeXeXeXeXeXeXeXeXeXeXeXeXeXeXeXeXeXeXeXeXeXeXeXeXeXeXeXeXeXeXeXeXeXeXeXeXeXeXeXeXeXeXeXeXeXeXeXeXeXeXeXeXeXeXeXeXeXeXeXeXeXeXeX",
"eXeXeXeXeXeXeXeXeXeXeXeXeXeXeXeXeXeXeXeXeXeXeXeXeXeXeXeXeXeXeXeXeXeXeXeXeXeXeXeXeXeXeXeXeXeXeXeXeXeXeXeXeXeXeXeXeXeXeXeXeXeXeXeX",
"eXeXeXeXeXeXeXeXeXeXeXeXeXeXeXeXeXeXeXeXeXeXeXeXeXeXeXeXeXeXeXeXeXeXeXeXeXeXeXeXeXeXeXeXeXeXeXeXeXeXeXeXeXeXeXeXeXeXeXeXeXeXeXeX"
};
