/* XPM */
static char *_747521336161[] = {
/* columns rows colors chars-per-pixel */
"64 64 227 2 ",
"   c #000000",
".  c #070A06",
"X  c #121C0E",
"o  c #131B10",
"O  c #192515",
"+  c #263B1D",
"@  c #242922",
"#  c #333333",
"$  c #343A32",
"%  c #393B3A",
"&  c #2E4823",
"*  c #334E2A",
"=  c #38572C",
"-  c #3C4837",
";  c #3E5934",
":  c #6C4D01",
">  c #674B03",
",  c #6E5103",
"<  c #6C540A",
"1  c #735302",
"2  c #7D5A00",
"3  c #725B0A",
"4  c #725508",
"5  c #785C15",
"6  c #6E5F11",
"7  c #756818",
"8  c #716C19",
"9  c #42553D",
"0  c #434620",
"q  c #675527",
"w  c #486B38",
"e  c #556738",
"r  c #4B773B",
"t  c #567634",
"y  c #7D6824",
"u  c #767927",
"i  c #6D7535",
"p  c #30304B",
"a  c #19197F",
"s  c #494949",
"d  c #475F41",
"f  c #515154",
"g  c #625D43",
"h  c #537C43",
"j  c #526F49",
"k  c #717841",
"l  c #696A69",
"z  c #737772",
"x  c #825D00",
"c  c #8C6400",
"v  c #8D6905",
"b  c #8D6D09",
"n  c #886308",
"m  c #956E0A",
"M  c #8E720D",
"N  c #8B6817",
"B  c #8E7B16",
"V  c #8B7511",
"C  c #977517",
"Z  c #916C1C",
"A  c #854E2E",
"S  c #8E752E",
"D  c #A1762C",
"F  c #9A7A41",
"G  c #9E4C68",
"H  c #A95977",
"J  c #B35175",
"K  c #8C6F6F",
"L  c #8F424A",
"P  c #57833D",
"I  c #79943B",
"U  c #6F8F3B",
"Y  c #558444",
"T  c #578B46",
"R  c #5D934C",
"E  c #599646",
"W  c #778D48",
"Q  c #64994C",
"!  c #72985A",
"~  c #6D944F",
"^  c #64A24E",
"/  c #7BA84B",
"(  c #6BA354",
")  c #6CAB55",
"_  c #67A353",
"`  c #74A958",
"'  c #6EB458",
"]  c #73B55A",
"[  c #75BA5D",
"{  c #7AB95D",
"}  c #719765",
"|  c #7D8962",
" . c #75A166",
".. c #7ABC61",
"X. c #7AB566",
"o. c #77C25D",
"O. c #7DC363",
"+. c #7DCB64",
"@. c #948A2A",
"#. c #92932C",
"$. c #849938",
"%. c #939A32",
"&. c #8D8932",
"*. c #AC8738",
"=. c #94A33A",
"-. c #90861F",
";. c #969250",
":. c #A19342",
">. c #AE8D4F",
",. c #96AA43",
"<. c #97B54C",
"1. c #95B951",
"2. c #83AD53",
"3. c #978A70",
"4. c #AA9465",
"5. c #B6946A",
"6. c #84BC6A",
"7. c #82AE72",
"8. c #87B779",
"9. c #9CA66E",
"0. c #B1AB6D",
"q. c #C09B56",
"w. c #CBA869",
"e. c #C3AE7C",
"r. c #98C559",
"t. c #82C05D",
"y. c #82CA66",
"u. c #84CE69",
"i. c #82C568",
"p. c #97CC64",
"a. c #87D26C",
"s. c #89D46E",
"d. c #89D86E",
"f. c #8AC975",
"g. c #97C77D",
"h. c #8EDA72",
"j. c #8AD470",
"k. c #92DD75",
"l. c #98D978",
"z. c #9AD467",
"x. c #92E176",
"c. c #96E679",
"v. c #9DEE7F",
"b. c #9BE578",
"n. c #1C1BA8",
"m. c #2E2DD1",
"M. c #0404FF",
"N. c #1B1AFE",
"B. c #3A39FC",
"V. c #2726FF",
"C. c #6261F0",
"Z. c #B95D83",
"A. c #A77888",
"S. c #A36B83",
"D. c #C96797",
"F. c #CC7D88",
"G. c #FB6C9A",
"H. c #E96792",
"J. c #DB7AB3",
"K. c #FF78A8",
"L. c #EA7FB1",
"P. c #94958E",
"I. c #AE8290",
"U. c #93B083",
"Y. c #B3B595",
"T. c #ABADAD",
"R. c #A6A7A6",
"E. c #B4B9A6",
"W. c #B2B3B3",
"Q. c #BBBBBB",
"!. c #AFADAC",
"~. c #C283A2",
"^. c #DB83B8",
"/. c #F689BA",
"(. c #E082BD",
"). c #C4B7BA",
"_. c #C4A1B5",
"`. c #C1B395",
"'. c #92CC85",
"]. c #BDC89F",
"[. c #A5CF92",
"{. c #9DED80",
"}. c #A3EE84",
"|. c #A5E88A",
" X c #ACFB8B",
".X c #A7F487",
"XX c #ABE994",
"oX c #ACF491",
"OX c #B1F997",
"+X c #B4DBB5",
"@X c #B0CEAA",
"#X c #B5EAAA",
"$X c #C7C299",
"%X c #C9CDBA",
"&X c #C8D3BB",
"*X c #B8B8DA",
"=X c #8484F8",
"-X c #9D9EF0",
";X c #B0B0F1",
":X c #F58BC3",
">X c #D2B4C9",
",X c #FFA5D9",
"<X c #E8ABD9",
"1X c #B8D5D6",
"2X c #C6C8C6",
"3X c #CCD1C8",
"4X c #D6D7CB",
"5X c #DBDCDB",
"6X c #D3D7D5",
"7X c #D1E9CB",
"8X c #E2E7DA",
"9X c #E1F3DA",
"0X c #DEDEFE",
"qX c #D8D9ED",
"wX c #F9C4F8",
"eX c #E8D0E7",
"rX c #DCECEA",
"tX c #E3E3E4",
"yX c #ECECED",
"uX c #E7E8E7",
"iX c #ECF8E6",
"pX c #E9EBF7",
"aX c #E8F2F5",
"sX c #FEFEFD",
"dX c #F1F1FC",
"fX c #F1FDEC",
"gX c #ff77f8",
/* pixels */
"gXgXgXgXgXgXgXgXgXgXgXgXgXgXgXgXgXgXgXgXgXgXgXgXgXgXgXgXgXgXgXgXgXgXgXgXgXgXgXgXgXgXgXgXgXgXgXgXgXgXgXgXgXgXgXgXgXgXgXgXgXgXgXgX",
"gXgXgXgXgXgXgXgXgXgXgXgXgXgXgXgXgXgXgXgXgXgXgXgXgXgXgXgXgXgXgXgXgXgXgXgXgXgXgXgXgXgXgXgXgXgXgXgXgXgXgXgXgXgXgXgXgXgXgXgXgXgXgXgX",
"gXgXgXgXgXgXgXgXgXgXgXgXgXgXgXgXgXgXgXgXgXgXgXgXgXgXgXgXgXgXgXgXgXgXgXgXgXgXgXgXgXgXgXgXgXgXgXgXgXgXgXgXgXgXgXgXgXgXgXgXgXgXgXgX",
"gXgXgXgXgXgXgXgXgXgXgXgXgXgXgXgXgXgXgXgXgXgXgXgXgXgXgXgXgXgXgXgXgXgXgXgXgXgXgXgXgXgXgXgXgXgXgXgXgXgXgXgXgXgXgXgXgXgXgXgXgXgXgXgX",
"gXgXgXgXgXgXgXgXgXgXgXgXgXgXgXgXgXgXgXgXgXgXgXgXgXgXgXgXgXgXgXgXgXgXgXgXgXgXgXgXgXgXgXgXgXgXgXgXgXgXgXgXgXgXgXgXgXgXgXgXgXgXgXgX",
"gXgXgXgXgXgXgXgXgXgXgXgXgXgXgXgXgXgXgXgXgXgXgXgXgXgXgXgXgXgXgXgXgXgXgXgXgXgXgXgXgXgXgXgXgXgXgXgXgXgXgXgXgXgXgXgXgXgXgXgXgXgXgXgX",
"gXgXgXgXgXgXgXgXgXgXgXgXgXgXgXgXgXgX6X5X6XQ.!.T.gXgXgXgXgXgXgXgXgXgXgXgXgXgXgXgXyXyXyXtX2X2XgXgXgXgXgXgXgXgXgXgXgXgXgXgXgXgXgXgX",
"gXgXgXgXgXgXgXgXgXgXgXgXgXgXgXgXgXuXuXuXyX5X2XR.W.gXgXgXgXgXgXgXgXgXgXgXgXgXgXyXyXpXyXyX6XT.gXgXgXgXgXgXgXgXgXgXgXgXgXgXgXgXgXgX",
"gXgXgXgXgXgXgXgXgXgXgXgXgXgXgXgXaXyXyXyXyXyX5XQ.R.gXgXgXgXgXgXgXgXgXgXgXgXgXaXyXyXyXyXyXtXT.T.gXgXgXgXgXgXgXgXgXgXgXgXgXgXgXgXgX",
"gXgXgXgXgXgXgXgXgXgXgXgXgXgXgXgXaXyXyXyXyXyXuX3XR.W.gXgXgXgXgXgXgXgXgXgXgXgXyXyXyXyXyXyXtXW.R.gXgXgXgXgXgXgXgXgXgXgXgXgXgXgXgXgX",
"gXgXgXgXgXgXgXgXgXgXgXgXgXgXgXgXaXyXyXyXyXiXyXtXW.R.].0.@.C M b M B @.S ;.&XyXyXyXyXyXyXtXW.R.gXgXgXgXgXgXgXgXgXgXgXgXgXgXgXgXgX",
"gXgXgXgXgXgXgXgXgXgXgXgXgXgXgXgXyXyXyXyXyXyX4X0.&.C C M b b v c c v b v N Z S S Y.yXyXyXtXT.R.gXgXgXgXgXgXgXgXgXgXgXgXgXgXgXgXgX",
"gXgXgXgXgXgXgXgXgXgXgXgXgXgXgXgXaXyXuX8X$X@.v c c c c c c c c c c c c c c 2 2 2 2 1 ;.%X6XR.!.gXgXgXgXgXgXgXgXgXgXgXgXgXgXgXgXgX",
"gXgXgXgXgXgXgXgXgXgXgXgXgXgXgXgXaX8X$X:.c c c c c c c c c c c c c c c c c n x 2 x 1 : 1 4.P.*XgXgXgXgXgXgXgXgXgXgXgXgXgXgXgXgXgX",
"gXgXgXgXgXgXgXgXgXgXgXgXgXgXgXgXtX0.C c c c c c c c c c c c c c c c c c c c x 2 2 2 1 : , y E.gXgXgXgXgXgXgXgXgXgXgXgXgXgXgXgXgX",
"gXgXgXgXgXgXgXgXgXgXgXgXgXgXgXrX:.m c c c c c c c c c c c c c c c c c c c c c x 2 2 x 1 : : N 2XgXgXgXgXgXgXgXgXgXgXgXgXgXgXgXgX",
"gXgXgXgXgXgXgXgXgXgXgXgXgXgX7X:.n c c c c x c c c c c c c c c c c c c c c c c n 2 2 2 2 : : : 1 %XgXgXgXgXgXgXgXgXgXgXgXgXgXgXgX",
"gXgXgXgXgXgXgXgXgXgXgXgXgX+X0.m c c c c c c c c c c c c c c c c c c c c c c c c x 2 2 2 1 : : : y @XgXgXgXgXgXgXgXgXgXgXgXgXgXgX",
"gXgXgXgXgXgXgXgXgXgX'.g.'.2.B c c c c c c c c c c c c c c c c c c c c c c c c c x x 2 x 2 1 : : 4 i  .} } gXgXgXgXgXgXgXgXgXgXgX",
"gXgXgXgXgXgXOXoX X}.d.i.t.$.c c c c c c c c c c c c c c c c c c c c c c c c c v x 2 2 2 2 1 : : , 7 P T T Q ) 7.@XgXgXgXgXgXgXgX",
"gXgXgXoXoX.X.X|.f.! ! ! / B c c v M -.=.1.r.1.<.=.@.B b c c c v c c c b B #.=.r.p.2.$.-.V 3 : : > 1 e e w t Q ( _ ) ] 8.gXgXgXgX",
"gXgXgX X.X{.[.E.)._._.<X3.n c m %.r.b.v.v.v.v.v.v.v.b.r.%.B v v c V #.<.k.v.v.v.b.k.+.a.y.I 7 : : : 5 K S.A.A.I.3.! ^ ^ gXgXgXgX",
"gXgX X Xg.).wX,X/./././.H m M ,.b.v.v.v.v.v.v.v.v.v.v.v.b.p.%.v %.r.b.v.v.v.{.{.v.h.u.a.a.+./ 8 : : 5 H H J D.D.^.I.3.Q gXgXgXgX",
"gXgXgX.XU.wXwXK.G.G.H.H.D M <.b.v.b.c.d.u.o.y.s.v.v.v.v.v.v.b.z.b.v.v.v.v.v.v.a.o.^ ^ ^ ' +.O.) 8 : : L G J J J J.:XP.( gXgXgXgX",
"gXgXgX Xl.).wX:XG.G.G.H.v ,.v.{.x.+.o.o.' ' ' ' ) i.{.{.v.v.v.v.v.v.v.v.v.i.( R E T T T E E ^ ) / 6 : A G J J Z.^.~.} ) gXgXgXgX",
"gXgXgXOX}.g.>XwX,X/./.I.V r.{.i.o.' _ E h j d 9 ; d X.{.v.v.v.v.v.v.}.v.s.- $ $ $ - ; w w P r Y ) I 1 A H D.D.J.~.| _ U.gXgXgXgX",
"gXgXgXgXOXv.'.E.eX>X`.4.C z.s.) R j ; % # # s l l l X.{.v.v.v.v.v.v.v.v.f.s s s p # # # $ - * = T W 3 7 K I.~.I.! Q X.+XgXgXgXgX",
"gXgXgXgXgXOX.X.X|.XX+XY.M p.` 9 % - p n.m.m.-XuXyXtX#X{.v.}.v.v.v.v.v.v.|.5X5X6X*Xm.n.a p @ @ o ; W 3 7 1XU. .( _ X.gXgXgXgXgXgX",
"gXgXgXgXgXgXgXgXgXgXgX$XV 1.j f P.*XC.N.N.B.;XsXsXfX#Xv.v.v.v.v.v.{.v.v.oXiXsXsX0XB.M.M.N.C.z % @ k 3 u gXgXgXgXgXgXgXgXgXgXgXgX",
"gXgXgXgXgXgXgXgXgXgXgX&X3 $.8.3XsXdXC.V.V.C.pXsXsX9X.X{.v.v.v.v.v.v.v.{.}.7XsXsXyX=XN.M.B.*X).R.z W , ;.gXgXgXgXgXgXgXgXgXgXgXgX",
"gXgXgXgXgXgXgXgXgXgXgXgX> 8 g.iXsXsXpX;X;X0XsXsX9XXX{.{.v.v.v.v.v.v.v.v.v.|.9XsXsXqX-X=X*X2XW.!.@Xu : gXgXgXgXgXgXgXgXgXgXgXgXgX",
"gXgXgXgXgXgXgXgXgXgXgXgX7 < 2.&XsXsXsXsXsXsXsX8X|.b.{.{.v.v.v.v.{.v.v.v.v.c.|.7XsXuXuXuX5XQ.!.*X2.3 3 gXgXgXgXgXgXgXgXgXgXgXgXgX",
"gXgXgXgXgXgXgXgXgXgXgXgXgX> u i [.4X8X8X4X@Xf.h.v.v.v.}.{.v.v.v.v.v.v.v.v.v.v.c.7.&X%X2XQ.R.T.e u : gXgXgXgXgXgXgXgXgXgXgXgXgXgX",
"gXgXgXgXgXgXgXgXgXgXgXgXgX5 > I { i ! ] q { c.v.v.v.v.v.v.v.v.{.v.v.v.v.v.v.v.v.a.( 0 e } e r U 1 4 gXgXgXgXgXgXgXgXgXgXgXgXgXgX",
"gXgXgXgXgXgXgXgXgXgXgXgXgXgX< 6 2.W { k.i l.v.v.v.v.v.v.v.v.v.v.v.v.v.v.v.v.v.v.u.o.e Q Q e ~ 8 1 gXgXgXgXgXgXgXgXgXgXgXgXgXgXgX",
"gXgXgXgXgXgXgXgXgXgXgXgXgXgX5 > u ` 6.c.l.b.v.v.v.v.v.v.{.v.v.v.{.v.v.}.v.v.v.h.u.y./ ' ( T u , 3 gXgXgXgXgXgXgXgXgXgXgXgXgXgXgX",
"gXgXgXgXgXgXgXgXgXgXgXgXgXgXgXy < W i.k.v.v.v.v.v.v.v.v.v.v.v.v.v.v.v.v.v.v.v.a.u.y.{ ] ] I 3 3 gXgXgXgXgXgXgXgXgXgXgXgXgXgXgXgX",
"gXgXgXgXgXgXgXgXgXgXgXgXgXgXgXgXS 5 2.a.v.v.v.v.v.v.v.v.{.v.v.{.v.v.v.v.v.v.x.u.u.i.[ [ ) 8 5 gXgXgXgXgXgXgXgXgXgXgXgXgXgXgXgXgX",
"gXgXgXgXgXgXgXgXgXgXgXgXgXgXgXgXgX;.I y.c.v.v.v.v.v.v.v.v.v.{.{.v.v.v.v.v.v.d.u.u.o.] ] I N gXgXgXgXgXgXgXgXgXgXgXgXgXgXgXgXgXgX",
"gXgXgXgXgXgXgXgXgXgXgXgXgXgXgXgXgX4X9.6.x.v.v.v.v..Xv.v.v.v.{.}.v.v.v.v.v.c.a.u.y.[ ] [ ! 3XgXgXgXgXgXgXgXgXgXgXgXgXgXgXgXgXgXgX",
"gXgXgXgXgXgXgXgXgXgXgXgXgXgXgXgXgXgX[.a.a.v.v.v.v.v.v.v.v.k.i.6.u.h.v.v.v.k.u.u.O.] ] ] f.gXgXgXgXgXgXgXgXgXgXgXgXgXgXgXgXgXgXgX",
"gXgXgXgXgXgXgXgXgXgXgXgXgXgXgXgXgXgX+Xj.a.x.v.v.v.v.{.v.i.; O 9 @ * ( c.v.h.u.u.{ ] ] ] +XgXgXgXgXgXgXgXgXgXgXgXgXgXgXgXgXgXgXgX",
"gXgXgXgXgXgXgXgXgXgXgXgXgXgXgXgXgXgXgXf.a.h.v.v.v.{.{.{.=   s 2Xz   O ..c.a.u.u.[ ] ] ] gXgXgXgXgXgXgXgXgXgXgXgXgXgXgXgXgXgXgXgX",
"gXgXgXgXgXgXgXgXgXgXgXgXgXgXgXgXgXgXgXf.a.a.c.v.v.{.{.k..   f uXP.    Y c.u.u.+.] ] ] O.gXgXgXgXgXgXgXgXgXgXgXgXgXgXgXgXgXgXgXgX",
"gXgXgXgXgXgXgXgXgXgXgXgXgXgXgXgXgXgXgX+XO.a.h.v.v.v.v.a.    . - .     Y h.u.a.O.] ] ] gXgXgXgXgXgXgXgXgXgXgXgXgXgXgXgXgXgXgXgXgX",
"gXgXgXgXgXgXgXgXgXgXgXgXgXgXgXgXgXgXgXgXO.u.a.c.v.v.v.v.O           o X.u.a.u.o.] ] ..gXgXgXgXgXgXgXgXgXgXgXgXgXgXgXgXgXgXgXgXgX",
"gXgXgXgXgXgXgXgXgXgXgXgXgXgXgXgXgXgXgXgXf.O.a.d.v.v.v.v.( O       . Y u.u.u.y.] ] ] i.gXgXgXgXgXgXgXgXgXgXgXgXgXgXgXgXgXgXgXgXgX",
"gXgXgXgXgXgXgXgXgXgXgXgXgXgXgXgXgXgXgXgXgXO.y.u.d.c.v.v.c.X.& . O R u.u.u.u.{ ] ] [ gXgXgXgXgXgXgXgXgXgXgXgXgXgXgXgXgXgXgXgXgXgX",
"gXgXgXgXgXgXgXgXgXgXgXgXgXgXgXgXgXgXgXgXgX'...+.u.u.a.h.x.x.r . = u.a.u.u.O.] ] ] 6.gXgXgXgXgXgXgXgXgXgXgXgXgXgXgXgXgXgXgXgXgXgX",
"gXgXgXgXgXgXgXgXgXgXgXgXgXgXgXgXgXgXgXgXgXgX....O...+.u.u.[ = . + ) +.+...) ) ] ..gXgXgXgXgXgXgXgXgXgXgXgXgXgXgXgXgXgXgXgXgXgXgX",
"gXgXgXgXgXgXgXgXgXgXgXgXgXgXgXgXgXgXgXgXgXgXgXO.) r h _ T = X + X & P ^ r w _ ..gXgXgXgXgXgXgXgXgXgXgXgXgXgXgXgXgXgXgXgXgXgXgXgX",
"gXgXgXgXgXgXgXgXgXgXgXgXgXgXgXgXgXgXgXgXgXgXgXgXf.^ w & + & t Q r * & & ; R i.gXgXgXgXgXgXgXgXgXgXgXgXgXgXgXgXgXgXgXgXgXgXgXgXgX",
"gXgXgXgXgXgXgXgXgXgXgXgXgXgXgXgXgXgXgXgXgXgXgXgXgXgX7X7./ / ,.2./ / / / +XgXgXgXgXgXgXgXgXgXgXgXgXgXgXgXgXgXgXgXgXgXgXgXgXgXgXgX",
"gXgXgXgXgXgXgXgXgXgXgXgXgXgXgXgXgXgXgXgXgXgXgXgXgXgXgX0.m m m m m n x n gXgXgXgXgXgXgXgXgXgXgXgXgXgXgXgXgXgXgXgXgXgXgXgXgXgXgXgX",
"gXgXgXgXgXgXgXgXgXgXgXgXgXgXgXgXgXgXgXgXgXgXgXgXgXgXgX0.C m m m m N Z Z gXgXgXgXgXgXgXgXgXgXgXgXgXgXgXgXgXgXgXgXgXgXgXgXgXgXgXgX",
"gXgXgXgXgXgXgXgXgXgXgXgXgXgXgXgXgXgXgXgXgXgXgXgXgXgXgXgXC C C C Z Z S D gXgXgXgXgXgXgXgXgXgXgXgXgXgXgXgXgXgXgXgXgXgXgXgXgXgXgXgX",
"gXgXgXgXgXgXgXgXgXgXgXgXgXgXgXgXgXgXgXgXgXgXgXgXgXgXgXgX*.*.>.*.D F >.gXgXgXgXgXgXgXgXgXgXgXgXgXgXgXgXgXgXgXgXgXgXgXgXgXgXgXgXgX",
"gXgXgXgXgXgXgXgXgXgXgXgXgXgXgXgXgXgXgXgXgXgXgXgXgXgXgXgXw.w.w.q.>.4.4.gXgXgXgXgXgXgXgXgXgXgXgXgXgXgXgXgXgXgXgXgXgXgXgXgXgXgXgXgX",
"gXgXgXgXgXgXgXgXgXgXgXgXgXgXgXgXgXgXgXgXgXgXgXgXgXgXgXgXgXw.w.w.w.4.`.gXgXgXgXgXgXgXgXgXgXgXgXgXgXgXgXgXgXgXgXgXgXgXgXgXgXgXgXgX",
"gXgXgXgXgXgXgXgXgXgXgXgXgXgXgXgXgXgXgXgXgXgXgXgXgXgXgXgX1X`.w.w.5.5.Q.gXgXgXgXgXgXgXgXgXgXgXgXgXgXgXgXgXgXgXgXgXgXgXgXgXgXgXgXgX",
"gXgXgXgXgXgXgXgXgXgXgXgXgXgXgXgXgXgXgXgXgXgXgXgXgXgXgXgXgXgXe.w.4.gXgXgXgXgXgXgXgXgXgXgXgXgXgXgXgXgXgXgXgXgXgXgXgXgXgXgXgXgXgXgX",
"gXgXgXgXgXgXgXgXgXgXgXgXgXgXgXgXgXgXgXgXgXgXgXgXgXgXgXgXgXgXgXgXgXgXgXgXgXgXgXgXgXgXgXgXgXgXgXgXgXgXgXgXgXgXgXgXgXgXgXgXgXgXgXgX",
"gXgXgXgXgXgXgXgXgXgXgXgXgXgXgXgXgXgXgXgXgXgXgXgXgXgXgXgXgXgXgXgXgXgXgXgXgXgXgXgXgXgXgXgXgXgXgXgXgXgXgXgXgXgXgXgXgXgXgXgXgXgXgXgX",
"gXgXgXgXgXgXgXgXgXgXgXgXgXgXgXgXgXgXgXgXgXgXgXgXgXgXgXgXgXgXgXgXgXgXgXgXgXgXgXgXgXgXgXgXgXgXgXgXgXgXgXgXgXgXgXgXgXgXgXgXgXgXgXgX"
};
