/* XPM */
static char *_747521341064[] = {
/* columns rows colors chars-per-pixel */
"64 64 212 2 ",
"   c #3D2B25",
".  c #422F2A",
"X  c #45312A",
"o  c #4B352B",
"O  c #4D3A35",
"+  c #583B32",
"@  c #56382F",
"#  c #623E35",
"$  c #5C4738",
"%  c #674535",
"&  c #74473D",
"*  c #76483E",
"=  c #794B3E",
"-  c #665332",
";  c #786538",
":  c #5E4741",
">  c #644A43",
",  c #6B4F47",
"<  c #7E4C42",
"1  c #6B524B",
"2  c #67544D",
"3  c #6D5751",
"4  c #785C55",
"5  c #70584F",
"6  c #6A635D",
"7  c #7A6A65",
"8  c #804D3E",
"9  c #88773D",
"0  c #865143",
"q  c #8A5446",
"w  c #8B544A",
"e  c #8D584D",
"r  c #86554A",
"t  c #94594D",
"y  c #96594A",
"u  c #995D51",
"i  c #815750",
"p  c #A05F51",
"a  c #A25F4C",
"s  c #85675D",
"d  c #97645A",
"f  c #907544",
"g  c #A7614C",
"h  c #AA634E",
"j  c #AC6A4D",
"k  c #A36253",
"l  c #AB6653",
"z  c #AD6856",
"x  c #AA6B5B",
"c  c #B46A54",
"v  c #B36C5A",
"b  c #BA6E59",
"n  c #B66A55",
"m  c #BD715C",
"M  c #B57257",
"N  c #9B756B",
"B  c #997D74",
"V  c #8E736C",
"C  c #AD7366",
"Z  c #A67369",
"A  c #AA756B",
"S  c #AD786A",
"D  c #B57463",
"F  c #BB7563",
"G  c #B6796B",
"H  c #BB7E72",
"J  c #B37C72",
"K  c #A37873",
"L  c #C3735C",
"P  c #CA765E",
"I  c #CD785F",
"U  c #CD7961",
"Y  c #C17C6A",
"T  c #C57964",
"R  c #D47D64",
"E  c #D97F66",
"W  c #988642",
"Q  c #AA9847",
"!  c #B0924A",
"~  c #B7A54D",
"^  c #AB847B",
"/  c #B3807A",
"(  c #C78558",
")  c #D4965E",
"_  c #C8B74E",
"`  c #C9A752",
"'  c #CCB652",
"]  c #D5B957",
"[  c #E2B85F",
"{  c #DA8067",
"}  c #DE8369",
"|  c #D5836A",
" . c #C58375",
".. c #CB8A7C",
"X. c #C98779",
"o. c #D88B74",
"O. c #D48C72",
"+. c #E2856B",
"@. c #E68A6F",
"#. c #E48B72",
"$. c #EA8D72",
"%. c #E38F78",
"&. c #EC9274",
"*. c #E4927A",
"=. c #E9927A",
"-. c #EE9B72",
";. c #FA9A7D",
":. c #F7B971",
">. c #F4AE72",
",. c #D4C450",
"<. c #E3CE5D",
"1. c #ECD95F",
"2. c #F8CA6C",
"3. c #F8D967",
"4. c #F0CB67",
"5. c #F8E364",
"6. c #629D9B",
"7. c #6D9794",
"8. c #64A09E",
"9. c #6BA9A6",
"0. c #74BCBA",
"q. c #71B4B1",
"w. c #78ABA9",
"e. c #7AC1BF",
"r. c #7ECAC7",
"t. c #9E8C87",
"y. c #949E95",
"u. c #B0918B",
"i. c #96A8A4",
"p. c #A4BEB7",
"a. c #C98D82",
"s. c #CD9185",
"d. c #CB938D",
"f. c #D7978B",
"g. c #D7988C",
"h. c #D8988D",
"j. c #D29185",
"k. c #C99C90",
"l. c #D59E93",
"z. c #E59E8A",
"x. c #E89982",
"c. c #FE9E82",
"v. c #D6A196",
"b. c #DAA59A",
"n. c #DEA99D",
"m. c #D7A89B",
"M. c #E9A08A",
"N. c #F9A58B",
"B. c #E0AA9E",
"V. c #E8A592",
"C. c #F2AC97",
"Z. c #FCB39C",
"A. c #F0B19E",
"S. c #D6A7A4",
"D. c #DCB9AB",
"F. c #D4B8B2",
"G. c #CAB1A7",
"H. c #E3AEA2",
"J. c #EBB6A8",
"K. c #F3B5A3",
"L. c #FCB6A1",
"P. c #FEBAA5",
"I. c #F4BDAD",
"U. c #FEBDAA",
"Y. c #F3B8A5",
"T. c #E4B5B2",
"R. c #F5BDB0",
"E. c #FEBCB0",
"W. c #A9C0BB",
"Q. c #FFC2AD",
"!. c #F6C2AF",
"~. c #E9C8BA",
"^. c #FCC4B5",
"/. c #FEC6B8",
"(. c #FDCBBB",
"). c #F6C7B6",
"_. c #FED1BF",
"`. c #ECBDC5",
"'. c #81CECB",
"]. c #87CBC9",
"[. c #89D6D4",
"{. c #9AD8D8",
"}. c #A4D8D7",
"|. c #92E1DF",
" X c #96E4E3",
".X c #9CECEB",
"XX c #9FF0EF",
"oX c #A4F5F5",
"OX c #ACFDFD",
"+X c #A9F4F3",
"@X c #BBFFFE",
"#X c #B5FBF9",
"$X c #CDDBD6",
"%X c #DDD5D7",
"&X c #D8C4CE",
"*X c #EDCEC0",
"=X c #F7CBC7",
"-X c #FED4C3",
";X c #FFD8C6",
":X c #FFDDCC",
">X c #FBD6C8",
",X c #FEDFD1",
"<X c #FFE1D2",
"1X c #E4E0DC",
"2X c #C4FEFE",
"3X c #C5F3F2",
"4X c #C8E9ED",
"5X c #FBF2EC",
"6X c #FEFEFB",
"7X c #FCF8F4",
"8X c #EFEDEA",
"9X c #ff77f8",
/* pixels */
"9X9X9X9X9X9X9X9X9X9X9X9X9X9X9X9X9X9X9X9X9X9X9X9X9X9X9X9X9X9X9X9X9X9X9X9X9X9X9X9X9X9X9X9X9X9X9X9X9X9X9X9X9X9X9X9X9X9X9X9X9X9X9X9X",
"9X9X9X9X9X9X9X9X9X9X9X9X9X9X9X9X9X9X9X9X9X9X9X9X9X9X9X9X9X9X9X9X9X9X9X9X9X9X9X9X9X9X9X9X9X9X9X9X9X9X9X9X9X9X9X9X9X9X9X9X9X9X9X9X",
"9X9X9X9X9X9X9X9X9X9X9X9X9X9X9X9X9X9X9X9X9X9X9X9X9X9X9X9X9X9X9X9X9X9X9X9X9X9X9X9X9X9X9X9X9X9X9X9X9X9X9X9X9X9X9X9X9X9X9X9X9X9X9X9X",
"9X9X9X9X9X9X9X9X9X9X9X9X9X9X9X9X9X9X9X9X9X9X9X9X9X9X9X9X9X9X9X9X9X9X9X9X9X9X9X9X9X9X9X9X9X9X9X9X9X9X9X9X9X9X9X9X9X9X9X9X9X9X9X9X",
"9X9X9X9X9X9X9X9X9X9X9X9X9X9X9X9X9X9X9X9X9X9X9X9X9X9X9X9X9X9X9X9X9X9X9X9X9X9X9X9X9X9X9X9X9X9X9X9X9X9X9X9X9X9X9X9X9X9X9X9X9X9X9X9X",
"9X9X9X9X9X9X9X9X9X9X9X9X9X9X9X9X9X9X9X9X9X9X9X9X9X9X9X9X9X9X9X9X9X9X9X9X9X9X9X9X9X9X9X9X9X9X9X9X9X9X9X9X9X9X9X9X9X9X9X9X9X9X9X9X",
"9X9X9X9X9X9X9X9X9X9X9X9X9X9X9X9X9X9X9X9X9X9X9X9X9X9X9X9X9X9X9X9X9X9X9X9X9X9X9X9X9X9X9X9X9X9X9X9X9X9X9X9X9X9X9X9X9X9X9X9X9X9X9X9X",
"9X9X9X9X9X9X9X9X9X9X9X9X9X9X9X9X9X9X9X9X0.9X9X9X9X9X9X9X9X9X9X9X9X9X9X9X9X9X9X9X9X9X9X9Xe.9X9X9X9X9X9X9X9X9X9X9X9X9X9X9X9X9X9X9X",
"9X9X9X9X9X9X9X9X9X9X9X9X9X9X9X9X9X[. X.X[.0.0.9X9X9X9X9X9X9X9X9X9X9X9X9X9X9X9X9X9X[. X[.r.q.w.9X9X9X9X9X9X9X9X9X9X9X9X9X9X9X9X9X",
"9X9X9X9X9X9X9X9X9X9X9X9X9X9X9X9X.XOX2X2X#X Xr.0.9X9X9X9X9X9X9X9X9X9X9X9X9X9X9X}.|.OXOXOX Xr.8.9.9X9X9X9X9X9X9X9X9X9X9X9X9X9X9X9X",
"9X9X9X9X9X9X9X9X9X9X9X9X9X9X9X9X@X2X2X2X2X#X[.q.r.9X9X9X9X9X9X9X9X9X9X9X9X9X9X{.XXOXOXOXXXr.9.8.9X9X9X9X9X9X9X9X9X9X9X9X9X9X9X9X",
"9X9X9X9X9X9X9X9X9X9X9X9X9X9X9X9X2X2X2X2X2X2XOXr.0.{.9X9X9X9X9X9X9X9X9X9X9X9X}. XOXOXOXOXoXr.9.6.9X9X9X9X9X9X9X9X9X9X9X9X9X9X9X9X",
"9X9X9X9X9X9X9X9X9X9X9X9X9X9X9X9X@X2X2X2X2X2X#X[.0.[.%XF.d.J A x x A H H u.&X}..XOXOXOXOXoX'.9.6.9X9X9X9X9X9X9X9X9X9X9X9X9X9X9X9X",
"9X9X9X9X9X9X9X9X9X9X9X9X9X9X9X9X@X2X2X2X2X2X#Xp.N d d u u t e t e e e e w r i s t.oX+X#XoX'.9.6.9X9X9X9X9X9X9X9X9X9X9X9X9X9X9X9X",
"9X9X9X9X9X9X9X9X9X9X9X9X9X9X9X9X@X2X2X3X$XG.D w w w t p w w w w w w w w u w & & & % s p.}.].6.6.9X9X9X9X9X9X9X9X9X9X9X9X9X9X9X9X",
"9X9X9X9X9X9X9X9X9X9X9X9X9X9X9X9X@X2X$XS.Y p w w w e T U w w w w w w w w v U w & & & # = N y.7.8.9X9X9X9X9X9X9X9X9X9X9X9X9X9X9X9X",
"9X9X9X9X9X9X9X9X9X9X9X9X9X9X9X9X4XF.j.E p w w w w l E L w w w w w w w w v +.v < & & & % = g N i.9X9X9X9X9X9X9X9X9X9X9X9X9X9X9X9X",
"9X9X9X9X9X9X9X9X9X9X9X9X9X9X9X=XB.o.} k w w w w y L } F w w w w w w w w l +.L w < & & & % y k S F.9X9X9X9X9X9X9X9X9X9X9X9X9X9X9X",
"9X9X9X9X9X9X9X9X9X9X9X9X9X9X9Xz.@.+.U w w w w w u R +.b w w w w w w w w z +.U u < & & & * = g h D 9X9X9X9X9X9X9X9X9X9X9X9X9X9X9X",
"9X9X9X9X9X9X9X9X9X9X9X9X9X9XV.+.+.+.l w w w w y k E +.F p p p k k p k p b +.U u w & & & & * g g h F 9X9X9X9X9X9X9X9X9X9X9X9X9X9X",
"9X9X9X9X9X9X9X9X9X9X9X9Xa.B.+.+.E @.y u p z v L U } +.{ { { { +.+.+.E +.} +.E L v y q 0 = = g g g g  .K 9X9X9X9X9X9X9X9X9X9X9X9X",
"9X9X9X9X9X9X9X9Xx.T T T b { +.+.@.E L U R E +.+.+.+.+.+.+.+.+.+.+.+.+.+.+.+.+.+.+.R b c n h l h g g g y r e 0 e / 9X9X9X9X9X9X9X",
"9X9X9X9XP.N.c.c.c.$.*.z.*.@.+.+.E @.E @.+.+.+.+.+.+.+.+.+.+.+.+.+.+.+.+.+.+.+.+.+.} U I I P L h g g h l d e 0 y l x G s.S.9X9X9X",
"9XN.;.N.N.N.L.U.U.U.U.L.=.+.+.+.E @.@.E @.=.%.@.+.+.+.+.+.+.+.+.+.+.+.+.+.+.+.+.+.#.} U I I P n g g g l S Z Z S H Y F v v v 9X9X",
"9Xc.P._.;X:X_.Q.Q.P.P.C.$.} +.+.@.E $.&.K.>X,XL.=.+.+.+.+.+.+.+.+.+.+.+.+.+.+.+.*.Y.Y.M.| P P n g g h h C Z Z Z A a.h.h.j...D 9X",
"9XZ._.:X:X;X:X_.Q.Q.P.N.+.+.+.+.E $.$./.5X6X6X5XK.@.+.+.+.+.+.+.+.+.+.+.+.+.E x._.<X-X).A.| I b h g g g x Z Z Z Z a.h.h.h.h. .9X",
"9XQ._.:X:X:X:X-XQ.U.L.x.+.+.+.+.@.E L.7X6X6X6X6X,Xx.+.+.+.+.+.+.+.+.+.+.+.+.#.J.<X<X_.).).V.P L h g g g v C Z Z A a.f.h.h.h.s.9X",
"9X9XQ.:X:X:X:X;X-XU.Z.$.+.+.} +.E $.:X8X8X8X7X6X5XC.@.+.+.+.+.+.+.+.+.+.+.+.*.=X<X:X~.T.I.R.U L h g a h h C Z Z J s.f.h.h.s.d.9X",
"9X9XP.-X:X:X:X:X:X^.N.+.} U k L U T u.6 : 2 t.1X7XU.@.} +.+.+.+.+.+.+.+.+.+.z.>X~.^ 2 $ > Z n h y 8 y g l c C A ..h.h.h.f...9X9X",
"9X9X9XQ.;X:X:X:X_.Z.N.@.+.R # + # X           7 %X/.$.+.+.+.+.+.+.+.+.+.+.} M.~.V         . X @ @ o y g h D v H f.h.h.h...9X9X9X",
"9X9X9X9XZ.U.P.L.Z.^.K.@.+.+.v & X . ; ;         B T.=.+.+.+.+.+.+.+.+.+.+.} h.^ X       - ; X . @ 8 a g h S.S.H G Y  .X.9X9X9X9X",
"9X9X9X9X9X-X/./.9X9X9X#.+.+.+.L < x <.!       $ $ a.=.+.+.+.+.+.+.+.+.+.+.} H $ $       9 ` f # q a g g h 9X9X9X9XS.`.`.9X9X9X9X",
"9X9X9X9X9X9X9X9X9X9X9X=.+.+.+.} } &.3.~     . W W C %.+.+.+.+.+.+.+.+.+.+.+.d 9 Q       9 ,.( j a g g g l 9X9X9X9X9X9X9X9X9X9X9X",
"9X9X9X9X9X9X9X9X9X9X9X| I I E +.+.&.3.' X     W <.O.+.+.+.+.+.+.+.+.+.+.+.+.b ] `       W ,.n j g g g g v 9X9X9X9X9X9X9X9X9X9X9X",
"9X9X9X9X9X9X9X9X9X9X9XX.L I I E +.@.2.] -   . ~ 3.-.+.+.+.+.+.+.+.+.+.+.+.+.R [ _ .   o Q ,.j g g g g g D 9X9X9X9X9X9X9X9X9X9X9X",
"9X9X9X9X9X9X9X9X9X9X9XT n L I I E +.2.1.9 . @ 1.2.$.+.+.+.+.+.+.+.+.+.+.+.+.E [ 1.-   ; _ _ g g g g g j F 9X9X9X9X9X9X9X9X9X9X9X",
"9X9X9X9X9X9X9X9X9X9X9X9XF n L I R E -.5.1.' <.3.:.@.+.+.+.+.+.+.+.+.+.+.+.+.+.) 1._ Q _ ] ! g g g g g v 9X9X9X9X9X9X9X9X9X9X9X9X",
"9X9X9X9X9X9X9X9X9X9X9X9XF c c b I R $.:.5.5.5.2.-.E +.+.+.+.+.+.+.+.+.+.+.+.+.I [ ,.,.,.] j g g g g h Y 9X9X9X9X9X9X9X9X9X9X9X9X",
"9X9X9X9X9X9X9X9X9X9X9X9X9XT c n L I +.-.:.2.2.-.@.+.+.+.+.+.+.+.+.+.+.+.+.+.+.+.( ` ` ` M g g g g g m 9X9X9X9X9X9X9X9X9X9X9X9X9X",
"9X9X9X9X9X9X9X9X9X9X9X9X9X9Xb c b P R +.$.$.$.+.+.+.+.+.+.+.+.+.+.+.+.+.+.+.+.+.R P I n h g g g g n 9X9X9X9X9X9X9X9X9X9X9X9X9X9X",
"9X9X9X9X9X9X9X9X9X9X9X9X9X9X9Xb n P I } +.+.+.+.+.+.+.+.+.+.+.+.+.+.+.+.+.+.+.{ I I P c g g g g c 9X9X9X9X9X9X9X9X9X9X9X9X9X9X9X",
"9X9X9X9X9X9X9X9X9X9X9X9X9X9X9X9Xb b I R +.+.+.+.+.+.+.+.#.%.%.&.$.%.%.@.+.+.} { I I L h g g g c 9X9X9X9X9X9X9X9X9X9X9X9X9X9X9X9X",
"9X9X9X9X9X9X9X9X9X9X9X9X9X9X9X9X9XY I R +.+.+.+.+.+.=.M.K.).-X>X>X(.!.K.M.&.} R I I n g g h D 9X9X9X9X9X9X9X9X9X9X9X9X9X9X9X9X9X",
"9X9X9X9X9X9X9X9X9X9X9X9X9X9X9X9X9XT.U I E +.+.+.$.V.!.;X:X:X:X:X<X:X:X:X>X^.V.| I L h g g l T.9X9X9X9X9X9X9X9X9X9X9X9X9X9X9X9X9X",
"9X9X9X9X9X9X9X9X9X9X9X9X9X9X9X9X9X9XT I R +.+.=.I.-X:X:X,X:X:X:X:X:X:X:X:X:X(.K.o.L g g g v 9X9X9X9X9X9X9X9X9X9X9X9X9X9X9X9X9X9X",
"9X9X9X9X9X9X9X9X9X9X9X9X9X9X9X9X9X9X..I R } z.(.:X:X:X:X:X:X:X,X:X:X:X:X:X:X(./.^...g g g  .9X9X9X9X9X9X9X9X9X9X9X9X9X9X9X9X9X9X",
"9X9X9X9X9X9X9X9X9X9X9X9X9X9X9X9X9X9X9XL R M.-X:X:X:X:X:X:X:X:X:X:X:X:X:X:X;X/././.b...l g 9X9X9X9X9X9X9X9X9X9X9X9X9X9X9X9X9X9X9X",
"9X9X9X9X9X9X9X9X9X9X9X9X9X9X9X9X9X9X9XT z.^.:X:X,X:X:X:X,X:X:X,X:X:X:X<X:X-X/./.U.v.l.X.M 9X9X9X9X9X9X9X9X9X9X9X9X9X9X9X9X9X9X9X",
"9X9X9X9X9X9X9X9X9X9X9X9X9X9X9X9X9X9X9Xg.U.(.:X:X:X:X:X:X,X:X*X*X~.:X<X<X:X(././.J.v.v.l.s.9X9X9X9X9X9X9X9X9X9X9X9X9X9X9X9X9X9X9X",
"9X9X9X9X9X9X9X9X9X9X9X9X9X9X9X9X9X9X9XT.I./.-X:X:X:X:X:X~.^ 3 3 3 5 ^ ~.-X/././.n.v.l.v.D.9X9X9X9X9X9X9X9X9X9X9X9X9X9X9X9X9X9X9X",
"9X9X9X9X9X9X9X9X9X9X9X9X9X9X9X9X9X9X9X9XJ././.-X:X:X:X:XD.> O O X   2 D.(././.R.b.v.l.b.9X9X9X9X9X9X9X9X9X9X9X9X9X9X9X9X9X9X9X9X",
"9X9X9X9X9X9X9X9X9X9X9X9X9X9X9X9X9X9X9X9XB.J././.-X:X:X,X:Xu.5 O X 2 k.(././.).J.v.l.v.n.9X9X9X9X9X9X9X9X9X9X9X9X9X9X9X9X9X9X9X9X",
"9X9X9X9X9X9X9X9X9X9X9X9X9X9X9X9X9X9X9X9X9XB.R././.-X-X:X:X:XD.1 > m._.(././.I.n.v.v.v.9X9X9X9X9X9X9X9X9X9X9X9X9X9X9X9X9X9X9X9X9X",
"9X9X9X9X9X9X9X9X9X9X9X9X9X9X9X9X9X9X9X9X9Xn.n.R./.^././.(./.H., % S.).^./.R.B.v.v.v.n.9X9X9X9X9X9X9X9X9X9X9X9X9X9X9X9X9X9X9X9X9X",
"9X9X9X9X9X9X9X9X9X9X9X9X9X9X9X9X9X9X9X9X9X9Xb.b.H.R./.J.k.N : : : : N k.H.b.v.v.v.b.9X9X9X9X9X9X9X9X9X9X9X9X9X9X9X9X9X9X9X9X9X9X",
"9X9X9X9X9X9X9X9X9X9X9X9X9X9X9X9X9X9X9X9X9X9X9Xb.v.l.b.^ 4 s ^ B.S.^ i 1 N v.v.v.b.9X9X9X9X9X9X9X9X9X9X9X9X9X9X9X9X9X9X9X9X9X9X9X",
"9X9X9X9X9X9X9X9X9X9X9X9X9X9X9X9X9X9X9X9X9X9X9X9X9Xb.v.b.v.v.v.v.v.v.v.b.v.v.b.9X9X9X9X9X9X9X9X9X9X9X9X9X9X9X9X9X9X9X9X9X9X9X9X9X",
"9X9X9X9X9X9X9X9X9X9X9X9X9X9X9X9X9X9X9X9X9X9X9X9X9X9X9X9X9X9X9X9X9X9X9X9X9X9X9X9X9X9X9X9X9X9X9X9X9X9X9X9X9X9X9X9X9X9X9X9X9X9X9X9X",
"9X9X9X9X9X9X9X9X9X9X9X9X9X9X9X9X9X9X9X9X9X9X9X9X9X9X9X9X9X9X9X9X9X9X9X9X9X9X9X9X9X9X9X9X9X9X9X9X9X9X9X9X9X9X9X9X9X9X9X9X9X9X9X9X",
"9X9X9X9X9X9X9X9X9X9X9X9X9X9X9X9X9X9X9X9X9X9X9X9X9X9X9X9X9X9X9X9X9X9X9X9X9X9X9X9X9X9X9X9X9X9X9X9X9X9X9X9X9X9X9X9X9X9X9X9X9X9X9X9X",
"9X9X9X9X9X9X9X9X9X9X9X9X9X9X9X9X9X9X9X9X9X9X9X9X9X9X9X9X9X9X9X9X9X9X9X9X9X9X9X9X9X9X9X9X9X9X9X9X9X9X9X9X9X9X9X9X9X9X9X9X9X9X9X9X",
"9X9X9X9X9X9X9X9X9X9X9X9X9X9X9X9X9X9X9X9X9X9X9X9X9X9X9X9X9X9X9X9X9X9X9X9X9X9X9X9X9X9X9X9X9X9X9X9X9X9X9X9X9X9X9X9X9X9X9X9X9X9X9X9X",
"9X9X9X9X9X9X9X9X9X9X9X9X9X9X9X9X9X9X9X9X9X9X9X9X9X9X9X9X9X9X9X9X9X9X9X9X9X9X9X9X9X9X9X9X9X9X9X9X9X9X9X9X9X9X9X9X9X9X9X9X9X9X9X9X",
"9X9X9X9X9X9X9X9X9X9X9X9X9X9X9X9X9X9X9X9X9X9X9X9X9X9X9X9X9X9X9X9X9X9X9X9X9X9X9X9X9X9X9X9X9X9X9X9X9X9X9X9X9X9X9X9X9X9X9X9X9X9X9X9X"
};
